<svg width="160" height="48" viewBox="0 0 160 48" fill="none" xmlns="http://www.w3.org/2000/svg">
  <!-- Logo icon part (keeping the original logo design) -->
  <path d="M32.0933 27.3037C33.0992 28.342 33.0513 29.9939 32.0614 31.0322C31.2471 31.8975 30.337 32.6684 29.3151 33.3134C27.0638 34.7608 24.3654 35.5946 21.4914 35.6103C13.6197 35.626 7.12124 29.3331 7.00947 21.5614C6.89771 13.6008 13.4122 7.11914 21.4594 7.11914C24.3015 7.11914 26.936 7.92149 29.1714 9.30593C30.4168 10.0768 31.5185 11.0207 32.4606 12.122C33.4186 13.2233 33.4984 14.8594 32.5723 15.9764C32.5404 16.0236 32.4925 16.0708 32.4446 16.118C31.3588 17.2507 29.4748 17.1249 28.5008 15.8978C27.6546 14.8437 26.5848 13.9942 25.3394 13.3963C24.1578 12.8457 22.8485 12.531 21.4594 12.531C17.34 12.531 13.8592 15.2685 12.8214 19.0127C12.9172 19.5476 13.3802 19.9724 13.971 19.9882L15.5996 20.0511C16.1585 20.0668 16.7173 19.9252 17.2123 19.642L18.3938 18.9341C19.3039 18.3835 20.3577 18.1003 21.4275 18.1003H29.2193C29.9378 18.1003 30.5286 18.6824 30.5286 19.3903V20.0983H23.0721C22.9603 20.0983 22.8805 20.1769 22.8805 20.2871C22.8805 20.3815 22.9603 20.4759 23.0561 20.4759L30.5126 20.9164V22.3637L22.8326 22.6941C22.609 22.7098 22.609 23.0245 22.8326 23.0402L30.4966 23.3077V23.3234C30.4966 24.0628 29.8899 24.6606 29.1395 24.6764L20.3897 24.7865C19.719 24.8022 19.0644 24.5977 18.5056 24.2201C17.7551 23.7324 16.9089 23.3234 15.7273 23.1661C14.6735 23.0245 13.6357 23.4493 12.9651 24.2359C14.1147 27.5082 17.1803 29.9467 20.8367 30.1827C22.3376 30.2771 23.7587 30.0096 25.036 29.459C26.3772 28.8769 27.1436 28.4521 27.8462 27.5711C28.6605 26.5485 30.0975 26.2024 31.279 26.753C31.5984 26.8946 31.8698 27.0677 32.0933 27.3037Z" fill="#94e469"/>
  <path d="M21.4754 0.212891C9.61202 0.212891 0 9.68373 0 21.3728C0 31.4572 7.1691 39.9055 16.7651 42.0136L21.3636 47.7873L25.9141 42.0765C35.6379 40.0628 42.9507 31.5516 42.9507 21.3728C42.9507 9.68373 33.3227 0.212891 21.4754 0.212891ZM21.4754 36.6646C12.9012 36.6646 5.95562 29.8211 5.95562 21.3727C5.95562 12.9246 12.9012 6.08103 21.4754 6.08103C30.0495 6.08103 36.9951 12.9246 36.9951 21.3727C36.9951 29.8211 30.0495 36.6646 21.4754 36.6646Z" fill="#94e469"/>
  <path d="M12.9973 24.2363C12.9334 24.315 12.8695 24.3937 12.8057 24.488L12.9973 24.2363Z" fill="#94e469"/>
  <path d="M12.8057 18.7461C12.8057 18.8562 12.8057 18.9349 12.8216 19.0135L12.8057 18.7461Z" fill="#94e469"/>

  <!-- Text part: Resto -->
  <text x="50" y="32" font-family="Arial, sans-serif" font-size="24" font-weight="bold" fill="#1E1E1E">Resto</text>
</svg>
