<svg width="160" height="48" viewBox="0 0 160 48" fill="none" xmlns="http://www.w3.org/2000/svg">
  <!-- Logo icon part (keeping the original logo design) -->
  <path d="M32.0933 27.3037C33.0992 28.3421 33.0513 29.9939 32.0614 31.0323C31.2471 31.8976 30.337 32.6684 29.3151 33.3135C27.0638 34.7608 24.3654 35.5946 21.4914 35.6104C13.6197 35.6261 7.12124 29.3332 7.00947 21.5614C6.89771 13.6009 13.4122 7.1192 21.4594 7.1192C24.3015 7.1192 26.936 7.92155 29.1714 9.30599C30.4168 10.0769 31.5185 11.0208 32.4606 12.1221C33.4186 13.2233 33.4984 14.8595 32.5723 15.9765C32.5404 16.0237 32.4925 16.0709 32.4446 16.1181C31.3588 17.2508 29.4748 17.1249 28.5008 15.8978C27.6546 14.8438 26.5848 13.9942 25.3394 13.3964C24.1578 12.8458 22.8485 12.5311 21.4594 12.5311C17.34 12.5311 13.8592 15.2685 12.8214 19.0128C12.9172 19.5477 13.3802 19.9725 13.971 19.9882L15.5996 20.0511C16.1585 20.0669 16.7173 19.9253 17.2123 19.6421L18.3938 18.9341C19.3039 18.3835 20.3577 18.1003 21.4275 18.1003H29.2193C29.9378 18.1003 30.5286 18.6824 30.5286 19.3904V20.0983H23.0721C22.9603 20.0983 22.8805 20.177 22.8805 20.2871C22.8805 20.3815 22.9603 20.4759 23.0561 20.4759L30.5126 20.9164V22.3638L22.8326 22.6942C22.609 22.7099 22.609 23.0245 22.8326 23.0403L30.4966 23.3077V23.3235C30.4966 24.0629 29.8899 24.6607 29.1395 24.6764L20.3897 24.7866C19.719 24.8023 19.0644 24.5978 18.5056 24.2202C17.7551 23.7325 16.9089 23.3235 15.7273 23.1661C14.6735 23.0245 13.6357 23.4493 12.9651 24.2359C14.1147 27.5082 17.1803 29.9468 20.8367 30.1827C22.3376 30.2771 23.7587 30.0097 25.036 29.459C26.3772 28.877 27.1436 28.4522 27.8462 27.5712C28.6605 26.5486 30.0975 26.2025 31.279 26.7531C31.5984 26.8947 31.8698 27.0677 32.0933 27.3037Z" fill="#1E1E1E"/>
  <path d="M21.4754 0.212769C9.61202 0.212769 0 9.68361 0 21.3727C0 31.4571 7.1691 39.9053 16.7651 42.0135L21.3636 47.7872L25.9141 42.0764C35.6379 40.0627 42.9507 31.5515 42.9507 21.3727C42.9507 9.68361 33.3227 0.212769 21.4754 0.212769ZM21.4754 36.6645C12.9012 36.6645 5.95562 29.8209 5.95562 21.3727C5.95562 12.9245 12.9012 6.08091 21.4754 6.08091C30.0495 6.08091 36.9951 12.9245 36.9951 21.3727C36.9951 29.8209 30.0495 36.6645 21.4754 36.6645Z" fill="#1E1E1E"/>
  <path d="M12.9973 24.2359C12.9334 24.3146 12.8695 24.3932 12.8057 24.4876L12.9973 24.2359Z" fill="#1E1E1E"/>
  <path d="M12.8057 18.7455C12.8057 18.8556 12.8057 18.9343 12.8216 19.0129L12.8057 18.7455Z" fill="#1E1E1E"/>

  <!-- Text part: Resto -->
  <text x="50" y="32" font-family="Arial, sans-serif" font-size="24" font-weight="bold" fill="#1E1E1E">Resto</text>
</svg>
